<svg xmlns="http://www.w3.org/2000/svg" viewBox="0 0 340.73 385.56"><defs><style>.cls-1{fill:#8390fa;}.cls-2{fill:#ef476f;}</style></defs><g id="Capa_2" data-name="Capa 2"><g id="Capa_1-2" data-name="Capa 1"><path class="cls-1" d="M35.1,378.62a3.66,3.66,0,0,1-2.75-1,4,4,0,0,1-1-2.94V362.38h7.51v-6.72H31.34v-7.34H22.61v7.34H18v6.72h4.65v12.37q0,5.38,3,8.1c2,1.81,4.74,2.71,8.28,2.71a16.21,16.21,0,0,0,3.9-.47A9.79,9.79,0,0,0,41,383.66l-2.36-6.16A5.57,5.57,0,0,1,35.1,378.62Z"/><path class="cls-1" d="M71.89,369.88a10.31,10.31,0,0,1-.9,4.57,6,6,0,0,1-2.46,2.68,7.28,7.28,0,0,1-3.59.87,5.8,5.8,0,0,1-4.51-1.76q-1.59-1.77-1.59-5.52V355H50.1v17a15.82,15.82,0,0,0,1.63,7.64,10.29,10.29,0,0,0,4.56,4.46A14.88,14.88,0,0,0,63,385.56,13.24,13.24,0,0,0,69.39,384a10.06,10.06,0,0,0,2.94-2.43v3.57h8.29V355H71.89Z"/><path class="cls-2" d="M101.45,359v-4H93.11v30.12h8.74V370.89c0-2.87.73-5,2.21-6.36a8.2,8.2,0,0,1,5.79-2q.51,0,1,0l1,.08v-8.06a14.68,14.68,0,0,0-7.22,1.65A9.54,9.54,0,0,0,101.45,359Z"/><path class="cls-2" d="M144,356.53a19.26,19.26,0,0,0-17.05,0A15.52,15.52,0,0,0,121,378a15.33,15.33,0,0,0,5.88,5.52,19.08,19.08,0,0,0,17.05,0,15.19,15.19,0,0,0,5.88-5.52,15.21,15.21,0,0,0-5.88-21.5Zm-1.85,18a7.28,7.28,0,0,1-2.74,2.89,8.11,8.11,0,0,1-7.84,0,7.42,7.42,0,0,1-2.77-2.89,10.1,10.1,0,0,1,0-8.93,7.47,7.47,0,0,1,2.77-2.86,8.18,8.18,0,0,1,7.84,0,7.33,7.33,0,0,1,2.74,2.86,10.37,10.37,0,0,1,0,8.93Z"/><path class="cls-2" d="M185,356.53a19.26,19.26,0,0,0-17,0,15.52,15.52,0,0,0-5.88,21.5,15.33,15.33,0,0,0,5.88,5.52,19.08,19.08,0,0,0,17,0,15.19,15.19,0,0,0,5.88-5.52,15.21,15.21,0,0,0-5.88-21.5Zm-1.85,18a7.28,7.28,0,0,1-2.74,2.89,8.11,8.11,0,0,1-7.84,0,7.44,7.44,0,0,1-2.78-2.89,10.19,10.19,0,0,1,0-8.93,7.49,7.49,0,0,1,2.78-2.86,8.18,8.18,0,0,1,7.84,0,7.33,7.33,0,0,1,2.74,2.86,10.37,10.37,0,0,1,0,8.93Z"/><path class="cls-2" d="M248.15,356a13.73,13.73,0,0,0-6.36-1.43,14.18,14.18,0,0,0-7.64,2.07,12.57,12.57,0,0,0-3.21,2.84,9.19,9.19,0,0,0-2.67-2.81,12.66,12.66,0,0,0-7.25-2.1,13.44,13.44,0,0,0-6.59,1.59,10.64,10.64,0,0,0-2.88,2.37V355h-8.34v30.12h8.73V370a10.16,10.16,0,0,1,.84-4.42,5.82,5.82,0,0,1,2.36-2.6,6.68,6.68,0,0,1,3.41-.87,5.28,5.28,0,0,1,4.23,1.73q1.49,1.74,1.48,5.38v15.9H233V370a10.16,10.16,0,0,1,.84-4.42,5.8,5.8,0,0,1,2.35-2.6,6.74,6.74,0,0,1,3.42-.87,5.35,5.35,0,0,1,4.25,1.73q1.51,1.74,1.52,5.38v15.9h8.73V367.87a15.79,15.79,0,0,0-1.59-7.54A10.27,10.27,0,0,0,248.15,356Z"/><path class="cls-2" d="M270.69,341a5.55,5.55,0,0,0-3.92,1.4,4.75,4.75,0,0,0,0,6.95,5.55,5.55,0,0,0,3.92,1.4,5.47,5.47,0,0,0,3.95-1.43,4.83,4.83,0,0,0,1.48-3.61,4.29,4.29,0,0,0-1.51-3.39A5.76,5.76,0,0,0,270.69,341Z"/><rect class="cls-2" x="266.32" y="354.99" width="8.74" height="30.13"/><path class="cls-2" d="M315,361.79a14.08,14.08,0,0,0-5.63-5.38,18,18,0,0,0-16.21.12A14.85,14.85,0,0,0,287.4,362a15.29,15.29,0,0,0-2.1,8,14.66,14.66,0,0,0,8.15,13.5,19.47,19.47,0,0,0,9.05,2,19.26,19.26,0,0,0,7.22-1.26,13.52,13.52,0,0,0,5.21-3.61l-4.65-5a10.26,10.26,0,0,1-3.33,2.18,11.29,11.29,0,0,1-4.23.73,10.41,10.41,0,0,1-4.68-1,7.14,7.14,0,0,1-3.08-2.85,8,8,0,0,1-.85-2.21h22.78c0-.38.07-.78.11-1.21s.06-.81.06-1.15A16.14,16.14,0,0,0,315,361.79Zm-17.5.34a7.74,7.74,0,0,1,3.95-1,7.58,7.58,0,0,1,3.92,1,6.92,6.92,0,0,1,2.63,2.71,7.67,7.67,0,0,1,.83,2.58H294a7.71,7.71,0,0,1,.81-2.55A6.81,6.81,0,0,1,297.48,362.13Z"/><circle class="cls-1" cx="117.27" cy="163.87" r="31.75"/><circle class="cls-1" cx="223.45" cy="163.87" r="31.75"/><path class="cls-1" d="M169.33,295.8a134,134,0,0,1-84.51-30,16,16,0,1,1,20.46-24.61,101.88,101.88,0,0,0,129.86-1.49,16,16,0,0,1,21.07,24.09,133.62,133.62,0,0,1-84.63,32Z"/><path class="cls-2" d="M15,159.46A15,15,0,0,1,5.44,132.9L161.88,3.44A15,15,0,0,1,181,26.56L24.56,156A14.93,14.93,0,0,1,15,159.46Z"/><path class="cls-2" d="M325.72,161.54A15,15,0,0,1,316,158L161.71,26.41A15,15,0,1,1,181.18,3.59L335.46,135.12a15,15,0,0,1-9.74,26.42Z"/><path class="cls-2" d="M244.68,91.23a17.5,17.5,0,0,1-17.5-17.5V26.31a17.5,17.5,0,0,1,35,0V73.73A17.51,17.51,0,0,1,244.68,91.23Z"/></g></g></svg>